<svg width="35" height="10" viewBox="0 0 35 10" fill="none" xmlns="http://www.w3.org/2000/svg">
<path fill-rule="evenodd" clip-rule="evenodd" d="M4.99052 -0.00883603C2.23875 -0.00883603 -0.000440001 2.23816 -0.000440001 4.9994C-0.000440001 7.76104 2.23875 10.0076 4.99052 10.0076C7.74324 10.0076 9.98148 7.76104 9.98148 4.9994C9.98148 2.23816 7.74324 -0.00883603 4.99052 -0.00883603ZM17.4994 -0.00883603C14.7477 -0.00883603 12.5085 2.23816 12.5085 4.9994C12.5085 7.76104 14.7477 10.0076 17.4994 10.0076C20.2522 10.0076 22.4914 7.76104 22.4914 4.9994C22.4914 2.23816 20.2522 -0.00883603 17.4994 -0.00883603ZM25.0184 4.9994C25.0184 2.23816 27.2566 -0.00883603 30.0093 -0.00883603C32.7611 -0.00883603 35.0003 2.23816 35.0003 4.9994C35.0003 7.76104 32.7611 10.0076 30.0093 10.0076C27.2566 10.0076 25.0184 7.76104 25.0184 4.9994Z" fill="#212121"/>
</svg>
